<svg xmlns="http://www.w3.org/2000/svg" width="300" height="300" viewBox="0 0 300 300"><path d="M301 31.1c-11.1 4.9-23.1 8.3-35.6 9.8 12.8-7.7 22.6-19.8 27.2-34.3 -12 7.1-25.2 12.3-39.3 15C242 9.5 225.9 2 208.1 2c-34.2 0-62 27.7-62 62 0 4.9 0.5 9.6 1.6 14.1C96.2 75.5 50.6 50.8 20 13.3c-5.3 9.2-8.4 19.8-8.4 31.1 0 21.5 10.9 40.5 27.6 51.6 -10.2-0.3-19.7-3.1-28.1-7.7 0 0.3 0 0.5 0 0.8 0 30 21.4 55.1 49.7 60.8 -5.2 1.4-10.7 2.2-16.3 2.2 -4 0-7.9-0.4-11.7-1.1 7.9 24.6 30.8 42.5 57.9 43 -21.2 16.6-47.9 26.5-76.9 26.5 -5 0-9.9-0.3-14.8-0.9 27.4 17.6 60 27.8 95 27.8 114 0 176.3-94.4 176.3-176.3 0-2.7-0.1-5.4-0.2-8C282.2 54.4 292.7 43.5 301 31.1z" fill="#fff"/></svg>
